<svg width="102" height="23" xmlns="http://www.w3.org/2000/svg">

 <g>
  <title>background</title>
  <rect fill="none" id="canvas_background" height="402" width="582" y="-1" x="-1"/>
 </g>
 <g id="g3057">
  <title>Layer 1</title>
  <g id="svg_1">
   <rect height="6.245" width="6.245" fill="#C0D028" y="8.213009" x="86.782994" id="svg_2"/>
   <g id="svg_3">
    <rect height="3.502" width="3.502" stroke-width="0.4225" stroke="#808285" fill="#FFFFFF" y="9.690009" x="95.855994" id="svg_4"/>
    <rect height="4.515" width="4.515" stroke-width="0.6761" stroke="#808285" fill="#FFFFFF" y="0.955009" x="87.668994" id="svg_5"/>
    <rect height="5.571" width="5.569" stroke-width="1.0563" stroke="#808285" fill="#FFFFFF" y="8.550009" x="78.976994" id="svg_6"/>
    <rect height="3.46" width="3.46" stroke-width="0.4225" stroke="#808285" fill="#FFFFFF" y="16.442009" x="80.031994" id="svg_7"/>
    <rect height="5.654" width="5.654" stroke-width="0.8451" stroke="#808285" fill="#FFFFFF" y="16.990009" x="87.077994" id="svg_8"/>
    <rect height="4.769" width="4.768" stroke-width="0.6338" stroke="#808285" fill="#FFFFFF" y="16.146009" x="95.221994" id="svg_9"/>
   </g>
   <g id="svg_10">
    <path d="m109.972994,5.121009l3.095,0c3.254,0 5.873,2.937 5.873,6.588c0,3.651 -2.619,6.588 -5.873,6.588c-0.318,0 -3.095,0 -3.095,0l0,-13.176l0,0zm2.143,10.953l0.873,0c1.905,0 3.492,-1.984 3.492,-4.365c0,-2.381 -1.587,-4.365 -3.492,-4.365c-0.317,0 -0.873,0 -0.873,0l0,8.73z" fill="#808285" id="svg_11"/>
    <path d="m126.084994,18.455009c-1.428,0 -2.46,-0.477 -3.73,-1.429l0.238,-1.984c1.349,0.715 2.381,1.191 3.492,1.191c0.953,0 2.223,-0.556 2.223,-1.588c0,-2.46 -6.19,-1.509 -6.19,-5.953c0,-2.301 1.984,-3.889 4.365,-3.889c1.508,0 2.46,0.476 3.809,1.588l-0.714,1.746c-0.953,-0.635 -2.063,-1.111 -3.095,-1.111c-1.35,0 -2.143,0.714 -2.143,1.508c0,2.381 6.19,1.747 6.19,5.794c0.159,2.779 -2.063,4.127 -4.445,4.127l0,0z" fill="#C0D028" id="svg_12"/>
    <path d="m143.228994,9.566009c0,2.382 -1.983,4.366 -4.365,4.366c-0.159,0 -2.619,0 -2.619,0l0,4.365l-2.223,0l0,-13.176l4.842,0c2.381,0 4.365,1.985 4.365,4.445l0,0zm-2.223,0c0,-1.19 -0.951,-2.222 -2.222,-2.222c-0.238,0 -2.619,0 -2.619,0l0,4.365l2.619,0c1.271,0 2.222,-0.952 2.222,-2.143z" fill="#C0D028" id="svg_13"/>
    <path d="m149.339994,18.297009l-2.223,0l0,-8.334c0,-3.254 1.984,-5 4.365,-5c2.461,0 4.365,1.826 4.365,5l0,8.334l-2.222,0l0,-4.365l-4.365,0l0,4.365l0.08,0l0,0zm4.366,-8.334c0,-1.905 -0.953,-2.857 -2.224,-2.857c-1.189,0 -2.222,0.953 -2.222,2.857l0,1.746l4.365,0l0,-1.746l0.081,0l0,0z" fill="#C0D028" id="svg_14"/>
    <path d="m165.610994,4.963009c1.588,0 3.334,1.032 4.207,2.54l-1.35,1.19c-0.873,-1.111 -1.746,-1.587 -2.777,-1.587c-1.746,0 -3.254,1.746 -3.254,4.604c0,2.856 1.508,4.604 3.254,4.604c0.952,0 1.904,-0.477 2.777,-1.588l1.35,1.191c-0.952,1.508 -2.619,2.539 -4.207,2.539c-3.333,0 -5.555,-3.016 -5.555,-6.746s2.222,-6.747 5.555,-6.747l0,0l0,0z" fill="#C0D028" id="svg_15"/>
    <path d="m173.388994,5.121009l6.588,0l0,2.223l-4.365,0l0,2.619l4.365,0l0,2.222l-4.365,0l0,3.968l4.365,0l0,2.223l-6.588,0l0,-13.255l0,0z" fill="#C0D028" id="svg_16"/>
   </g>
  </g>
  <text xml:space="preserve" text-anchor="start" font-family="Euphoria, sans-serif" font-size="24" id="svg_17" y="21.1" x="19.200013" stroke-width="0" fill="#c0d028">TSE</text>
 </g>
</svg>